# xmcd
#
# Track frame offsets:
# 150
# 10632
# 20536
# 33103
# 44011
# 53968
# 64903
# 78554
# 89461
# 101299
# 110845
# 122193
# 133375
# 142601
# 155245
# 166665
# 177796
# 187683
# 196886
#
# Disc length: 2805 seconds
#
# Revision: 0
# Processed by: cddbd v1.5.1PL0 Copyright (c) Steve Scherf et al.
# Submitted via: Axialis_AX_CDPlayer 2.6
#
DISCID=fa0af313
DTITLE=Betty Everett - Let It Be Me (The Best Of Betty Everett)
DYEAR=1900
DGENRE=
TTITLE0=You're No Good
TTITLE1=It's In His Kiss (The Shoop Shoop Song)
TTITLE2=Let It Be Me (w/Jerry Butler)
TTITLE3=I Can't Hear You
TTITLE4=It's Getting Mighty Crowded
TTITLE5=It Hurts To Be In Love
TTITLE6=Love Is Strange (w/Jerry Butler)
TTITLE7=Chained To A Memory
TTITLE8=No Place To Hide
TTITLE9=Too Hot To Hold
TTITLE10=I'm Gonna Be Ready
TTITLE11=Just Be True
TTITLE12=Hands Off
TTITLE13=Until You Were Gone
TTITLE14=The Way You Do The Things You Do
TTITLE15=Hound Dog
TTITLE16=I Need You
TTITLE17=The Real Thing
TTITLE18=Chained To Your Love
EXTD=
EXTT0=
EXTT1=
EXTT2=
EXTT3=
EXTT4=
EXTT5=
EXTT6=
EXTT7=
EXTT8=
EXTT9=
EXTT10=
EXTT11=
EXTT12=
EXTT13=
EXTT14=
EXTT15=
EXTT16=
EXTT17=
EXTT18=
PLAYORDER=
